HIERARCHY
ROOT hip
{
  OFFSET 0 0 0
  CHANNELS 6 Xposition Yposition Zposition Zrotation Yrotation Xrotation
  JOINT abdomen
  {
    OFFSET 0 20.6881 -0.73152
    CHANNELS 3 Zrotation Xrotation Yrotation
    JOINT chest
    {
      OFFSET 0 11.7043 -0.48768
      CHANNELS 3 Zrotation Xrotation Yrotation
      JOINT neck
      {
        OFFSET 0 22.1894 -2.19456
        CHANNELS 3 Zrotation Xrotation Yrotation
        JOINT head
        {
          OFFSET -0.24384 7.07133 1.2192
          CHANNELS 3 Zrotation Xrotation Yrotation
          JOINT leftEye
          {
            OFFSET 4.14528 8.04674 8.04672
            CHANNELS 3 Zrotation Xrotation Yrotation
            End Site
            {
              OFFSET 1 0 0
            }
          }
          JOINT rightEye
          {
            OFFSET -3.6576 8.04674 8.04672
            CHANNELS 3 Zrotation Xrotation Yrotation
            End Site
            {
              OFFSET 1 0 0
            }
          }
        }
      }
      JOINT rCollar
      {
        OFFSET -2.68224 19.2634 -4.8768
        CHANNELS 3 Zrotation Xrotation Yrotation
        JOINT rShldr
        {
          OFFSET -8.77824 -1.95073 1.46304
          CHANNELS 3 Zrotation Xrotation Yrotation
          JOINT rForeArm
          {
            OFFSET -28.1742 -1.7115 0.48768
            CHANNELS 3 Zrotation Xrotation Yrotation
            JOINT rHand
            {
              OFFSET -22.5879 0.773209 7.07136
              CHANNELS 3 Zrotation Xrotation Yrotation
              JOINT rThumb1
              {
                OFFSET -1.2192 -0.487915 3.41376
                CHANNELS 3 Zrotation Xrotation Yrotation
                JOINT rThumb2
                {
                  OFFSET -3.37035 -0.52449 3.41376
                  CHANNELS 3 Zrotation Xrotation Yrotation
                  End Site
                  {
                    OFFSET -1.78271 -1.18214 1.43049
                  }
                }
              }
              JOINT rIndex1
              {
                OFFSET -7.75947 0.938293 5.60832
                CHANNELS 3 Zrotation Xrotation Yrotation
                JOINT rIndex2
                {
                  OFFSET -2.54057 -0.884171 1.56538
                  CHANNELS 3 Zrotation Xrotation Yrotation
                  End Site
                  {
                    OFFSET -1.62519 -0.234802 1.16502
                  }
                }
              }
              JOINT rMid1
              {
                OFFSET -8.24714 1.18213 3.41376
                CHANNELS 3 Zrotation Xrotation Yrotation
                JOINT rMid2
                {
                  OFFSET -3.10165 -0.590103 1.0647
                  CHANNELS 3 Zrotation Xrotation Yrotation
                  End Site
                  {
                    OFFSET -2.48547 -0.328903 0.83742
                  }
                }
              }
              JOINT rRing1
              {
                OFFSET -8.82822 0.546677 1.51678
                CHANNELS 3 Zrotation Xrotation Yrotation
                JOINT rRing2
                {
                  OFFSET -2.60934 -0.819778 -0.0198488
                  CHANNELS 3 Zrotation Xrotation Yrotation
                  End Site
                  {
                    OFFSET -2.33842 -0.294052 0.168128
                  }
                }
              }
              JOINT rPinky1
              {
                OFFSET -8.27202 -0.0477905 -0.4584
                CHANNELS 3 Zrotation Xrotation Yrotation
                JOINT rPinky2
                {
                  OFFSET -1.82734 -0.647385 -0.700984
                  CHANNELS 3 Zrotation Xrotation Yrotation
                  End Site
                  {
                    OFFSET -1.69225 -0.51767 -0.607171
                  }
                }
              }
            }
          }
        }
      }
      JOINT lCollar
      {
        OFFSET 2.68224 19.2634 -4.8768
        CHANNELS 3 Zrotation Xrotation Yrotation
        JOINT lShldr
        {
          OFFSET 8.77824 -1.95073 1.46304
          CHANNELS 3 Zrotation Xrotation Yrotation
          JOINT lForeArm
          {
            OFFSET 28.1742 -1.7115 0.48768
            CHANNELS 3 Zrotation Xrotation Yrotation
            JOINT lHand
            {
              OFFSET 22.5879 0.773209 7.07136
              CHANNELS 3 Zrotation Xrotation Yrotation
              JOINT lThumb1
              {
                OFFSET 1.2192 -0.487915 3.41376
                CHANNELS 3 Zrotation Xrotation Yrotation
                JOINT lThumb2
                {
                  OFFSET 3.37035 -0.52449 3.41376
                  CHANNELS 3 Zrotation Xrotation Yrotation
                  End Site
                  {
                    OFFSET 1.78271 -1.18214 1.43049
                  }
                }
              }
              JOINT lIndex1
              {
                OFFSET 7.75947 0.938293 5.60832
                CHANNELS 3 Zrotation Xrotation Yrotation
                JOINT lIndex2
                {
                  OFFSET 2.54057 -0.884171 1.56538
                  CHANNELS 3 Zrotation Xrotation Yrotation
                  End Site
                  {
                    OFFSET 1.62519 -0.234802 1.16502
                  }
                }
              }
              JOINT lMid1
              {
                OFFSET 8.24714 1.18213 3.41376
                CHANNELS 3 Zrotation Xrotation Yrotation
                JOINT lMid2
                {
                  OFFSET 3.10165 -0.590103 1.0647
                  CHANNELS 3 Zrotation Xrotation Yrotation
                  End Site
                  {
                    OFFSET 2.48547 -0.328903 0.83742
                  }
                }
              }
              JOINT lRing1
              {
                OFFSET 8.82822 0.546677 1.51678
                CHANNELS 3 Zrotation Xrotation Yrotation
                JOINT lRing2
                {
                  OFFSET 2.60934 -0.819778 -0.0198488
                  CHANNELS 3 Zrotation Xrotation Yrotation
                  End Site
                  {
                    OFFSET 2.33842 -0.294052 0.168128
                  }
                }
              }
              JOINT lPinky1
              {
                OFFSET 8.27202 -0.0477905 -0.4584
                CHANNELS 3 Zrotation Xrotation Yrotation
                JOINT lPinky2
                {
                  OFFSET 1.82734 -0.647385 -0.700984
                  CHANNELS 3 Zrotation Xrotation Yrotation
                  End Site
                  {
                    OFFSET 1.69225 -0.51767 -0.607171
                  }
                }
              }
            }
          }
        }
      }
    }
  }
  JOINT rButtock
  {
    OFFSET -8.77824 4.35084 1.2192
    CHANNELS 3 Zrotation Xrotation Yrotation
    JOINT rThigh
    {
      OFFSET 0 -1.70687 -2.19456
      CHANNELS 3 Zrotation Xrotation Yrotation
      JOINT rShin
      {
        OFFSET 0 -36.8199 0.73152
        CHANNELS 3 Zrotation Xrotation Yrotation
        JOINT rFoot
        {
          OFFSET 0.73152 -45.1104 -5.12064
          CHANNELS 3 Zrotation Xrotation Yrotation
          End Site
          {
            OFFSET -1.1221 -3.69964 12.103
          }
        }
      }
    }
  }
  JOINT lButtock
  {
    OFFSET 8.77824 4.35084 1.2192
    CHANNELS 3 Zrotation Xrotation Yrotation
    JOINT lThigh
    {
      OFFSET 0 -1.70687 -2.19456
      CHANNELS 3 Zrotation Xrotation Yrotation
      JOINT lShin
      {
        OFFSET 0 -36.8199 0.73152
        CHANNELS 3 Zrotation Xrotation Yrotation
        JOINT lFoot
        {
          OFFSET -0.73152 -45.1104 -5.12064
          CHANNELS 3 Zrotation Xrotation Yrotation
          End Site
          {
            OFFSET 1.1221 -3.69964 12.103
          }
        }
      }
    }
  }
}
MOTION
Frames:	4
Frame Time:	0.03333
18.273672927170992 54.17246222496033 -80.8735515922308 16.149251462253957 24.014475546259394 16.158352689323 -20.463943432653544 6.8062660055579585 4.224497614862274 5.1979370291461375 -10.636784221828734 1.0416149474843457 -8.850548881218767 15.323775289733728 -12.630170662228723 9.60918994516313 -26.610157459181217 -22.330087717684428 -0.44394196556587745 0.2613491311017514 0.3674803456851119 0.2838633022359646 0.29830125492431375 -0.1663338092687487 0.010281489093705484 0.22719834533424632 0.42926458273060764 32.829239358869174 -23.757320631555707 67.88115204725473 -7.938850108163588 -3.4376028330859176 14.9259816573776 -0.9404506678097597 28.579826921461983 4.504826080759345 -0.4521102848438309 -0.01433619354188653 0.07212458315993968 0.31841189316177004 -0.4102232159438021 0.36551661293788035 0.33597700527292723 -0.3127500932266526 0.36178938404388966 7.77261867169111 5.2345007393205085 0.6616284720680876 0.3719297336816992 0.5122495668772643 0.027903110348073926 2.9372605270878074 1.209812197777318 0.46056611239715955 -0.050998514572399345 -0.13810274311880835 -0.004886253299203653 10.118594844972792 1.0128097985985807 0.17548354135306835 0.2352647987440314 0.12186786370936407 0.06438283053999469 1.8813092259790163 -0.9280779935716932 -0.5467319369846323 0.1177285022680719 -0.13090601825028922 0.23679988375999175 -110.58427337973983 48.366324871476984 48.67562998804101 28.53169970102278 -41.62633517964342 -86.96592319213178 20.006749352633108 -73.0383888329104 26.40070629318819 0.03932358684673193 -0.02258476754258763 0.34582357673514685 0.09889377538408571 0.2510754860534209 -0.09654194915377992 -0.34592955138898784 0.3956797154884351 0.10738898324684774 -7.87224978734044 6.056782517743289 -0.40064011369273045 -0.1675484890435267 0.24508922545230138 -0.018283669356183665 -2.297787054253125 0.9084372510047927 0.21208925985887733 0.33018617879552 0.39717859516570914 0.1802382334694699 -10.519985425700577 1.1766500285313193 -0.3654591966601699 -0.0076323161807727346 0.04815374078308904 0.2610863289012646 -1.9051841522227957 -0.9270855884296315 0.010228368364652766 0.056171422373331975 -0.3406318325531438 0.18415241211156325 -78.4468263158608 -61.47528837942902 -67.89618529361792 -3.040997440201961 72.00440747559719 3.6047215538202626 0.7200877410091094 1.8534471768072416 10.49550175884702 0.0023051888448793034 0.012856136905469722 -0.29768920594165715 7.313961223640999 15.245958944519773 1.393581852491096 0.03280171668472178 21.726005296920988 -1.9216015791099792 6.91286647548164 -13.038251413248537 35.59887765221476
19.72135864198208 54.08545732498169 -80.24762747809291 16.47013374946116 23.87777784775805 16.60037008900767 -20.7827168989545 6.553079857648871 4.199082054073833 5.247139577492794 -10.645385137541073 0.9841875707165249 -8.830247851458198 15.408544767522756 -12.641386686619532 9.746411860683272 -26.8011466238477 -22.341724652482835 -0.451906606468347 0.2694262566821146 0.36745003672066995 0.2794433160693201 0.2135962370455775 -0.23025637577213443 -0.01938458379259865 0.2247104489290692 0.45871827942240667 32.57429571790928 -23.952658919176194 68.12005157385425 -7.936433928744696 -3.4181205722521026 14.79502985551553 -0.9335056460843262 28.783045539837374 4.585867129035193 -0.4491096973640797 -0.006704097474631969 0.05303078933516904 0.33150798048247615 -0.4080759752234794 0.3567066294039159 0.28729141686907633 -0.3384935030952538 0.3489492687345004 7.82075784496136 5.215923905438543 0.6564434513535489 0.3191478460448389 0.5116107307464565 0.006905774818132463 2.984940370136374 1.1979067511671626 0.4917958717165735 -0.0158068186475549 -0.13657619583931052 0.01543718801958085 10.146444087539871 0.9878221918503236 0.19137621761292442 0.1737363202664409 0.11605153074427509 0.010480578435840777 1.9065612891141996 -0.9151371329720462 -0.5413160238596353 0.09375603238520808 -0.08166782485390199 0.2908482378793605 -110.65111361095757 48.31405343375888 48.69281474399276 28.571287477452177 -41.49972396299889 -86.84935918375635 20.026311014416024 -73.08732030812438 26.414441803609087 0.04247870735645469 -0.04089308961280681 0.3544037884365638 0.07458107670319064 0.2634919161908578 -0.17235427417657115 -0.3700485501738896 0.3842216996297685 0.13939909167893563 -7.8847652552208425 6.026304506119399 -0.4532125066211417 -0.14072270763489006 0.2240057121449414 -0.07251964023431616 -2.2852743611370734 0.9259556190088175 0.29310524187407944 0.3365086928111304 0.38806690936950056 0.13018383246726617 -10.495827900379888 1.1623131412983452 -0.39401600413658167 -0.013146626718500217 0.03285102211279281 0.2846635015859139 -1.9006561636899004 -0.9404790557834977 -0.0396677643478771 0.03096781089257336 -0.3189092696715645 0.20759234068257762 -79.44398612335848 -61.841475311400906 -68.88637147797301 -3.175734447524687 72.53530441940394 3.7303479425638377 0.6787134432249341 1.6545934761983137 10.269716195453908 0.009314990645722233 0.012265645707380965 -0.25893983523288233 7.094717273925467 16.122400281079347 1.3010135793303825 0.005152470594275478 20.63216757681637 -1.9096005098514437 6.914508282203381 -13.040301323773187 35.947388054614656
21.15309899672866 53.85270118713379 -79.67386581003666 16.195778710880084 23.466207723846008 16.683795727077495 -20.316095450332156 6.428621431253368 4.10536246715115 5.08508907056601 -10.60252399295195 0.9989644715424358 -8.711407682541854 15.48019345191619 -12.422155543508692 9.69836660251411 -26.86857766642865 -22.032294884966458 -0.4388718307676124 0.20363019063373555 0.30285885873056345 0.27154932493607786 0.17073893443786312 -0.24658810512957538 -0.040223917837130675 0.1927054631388588 0.4534639429599628 32.46617040825339 -23.393401322388257 67.68804210885095 -8.109985620460135 -3.464458283128762 14.943395224666547 -0.9326578488535984 28.18815313860219 4.506823057317928 -0.46212035395930773 -0.02794929416625085 -0.05706887187767463 0.36276943614850715 -0.38625778969351987 0.31438176138634516 0.2560558945775502 -0.32750906480599234 0.28252119674448356 7.872141358087366 5.259324208085274 0.7007596930401485 0.2903985126111974 0.5246323796773801 -0.005985353466620353 2.979463839082493 1.2588230739403907 0.46189799928531206 0.02471946846248107 -0.15511418302037136 0.02482773763299635 10.147206507405974 0.9651139472941469 0.17987652692815015 0.11499221109268842 0.09150575185795333 -0.002630716727939169 1.932743111750151 -0.9319095162526588 -0.528761068948094 0.07734826381239783 -0.028688395339640276 0.3594626107340161 -110.16398451935225 48.04698620702221 48.17487808413611 28.486234546812593 -41.14561280547958 -86.40748692559154 19.696231877491403 -72.47395566027889 26.22321016722707 0.07594492674222467 -0.00881766749678068 0.36368366764108395 0.06707843406504897 0.27891362956310034 -0.20659155788661207 -0.36797718858637746 0.3592326521384835 0.16088857435508824 -7.871198791981905 6.031982954640619 -0.49145046691581185 -0.12003566546450815 0.21548803936311237 -0.11278381883495289 -2.2889797387618054 0.9447830354559577 0.37343797818865554 0.3340534532479224 0.37421315129859906 0.07865923324621715 -10.455455505969589 1.076785725954857 -0.2590807078845138 -0.02028502817480979 0.07446779161250364 0.31763880112508924 -1.8754356901796283 -0.9528916439395264 -0.05639863288494068 0.07689549697562004 -0.26493199220824626 0.27694053198618646 -78.69225550330688 -61.61789589910971 -68.30899509686432 -3.1673696002255367 72.49478090705826 3.684554085499841 0.5394042645831193 1.2472059893792569 9.452765806565147 -0.05624938257940532 0.032733054607264646 -0.17252769694846598 7.391787814138709 15.935475078969022 1.5174673967699641 0.12671020102663866 20.556506156285558 -2.12936270017025 6.724437777980267 -12.756151793922317 35.42754235688499
22.5589731708169 53.909629583358765 -79.11553727462888 15.701293505538672 23.399097700156048 16.58095015365003 -19.571517745888848 6.506541936852166 4.001813811125994 4.884797615136795 -10.567763452718463 1.055890256293084 -8.598101674400512 15.596161526286544 -12.243177266497678 9.660975585676521 -27.110115353595102 -21.791365084636134 -0.41255852699013823 0.12925369944052795 0.23336125703886057 0.2612323241947736 0.1406239900570422 -0.22820198293584154 -0.017335740485006388 0.1550830736431361 0.40503064466857924 32.60460809744579 -22.66684507207003 67.1766180343679 -8.441215644259904 -3.721879361766668 15.539196041061345 -0.8905875654651693 27.5137470901443 4.399828997743325 -0.4903684155408937 -0.03948815171704692 -0.15044011915268768 0.38181114978085645 -0.35174548414768014 0.28237709576125214 0.26631142361632437 -0.3210948768451157 0.18966872368127413 7.948656552264434 5.352590014314974 0.7411654913443573 0.3153394819740279 0.5126102862428056 -0.016144939691896978 2.991041863499311 1.306184672862317 0.3977174864190526 0.0526429893367857 -0.13885577147480227 0.004188826951921882 10.1553549230858 0.9439853974269471 0.1477591631817519 0.09919398354244893 0.06727896415021233 -0.01247429998239692 1.9265709686179866 -0.9160054207702841 -0.5190321048056457 0.04542673439610855 0.007306488142915359 0.41714206417089283 -110.33262188995988 48.19694301024984 47.98362595718658 28.509329123943697 -41.05537576125996 -86.52683082095918 19.52425454437965 -72.25701519186094 26.261005018999334 0.12757966276364013 0.019875957206442887 0.36463690591712383 0.06413835779247583 0.2608742461914504 -0.19325465303681016 -0.38085316238890926 0.352962431758706 0.16388852150460478 -7.910172705159644 6.061479126571319 -0.5443765355771828 -0.10354481404374706 0.2372874418728543 -0.12266464796472837 -2.331168750047916 0.9321685298325904 0.3896463372542131 0.296154014203991 0.33512013669720797 0.06660501657820246 -10.487711074324974 0.9924924404170257 -0.0724814338636464 -0.03481860351153911 0.10826356762572673 0.3374755914655103 -1.8710272299572082 -0.9472872602821194 -0.07233623898293075 0.1332458382886946 -0.21397002982007704 0.3336865973842986 -77.73008675492719 -61.39948694002022 -67.70749448760715 -3.09597448660504 72.5343140419743 3.554778356835483 0.4139473499083251 0.9963254572018722 8.560796888701194 -0.13217344522814972 0.060827757097642716 -0.07962986716029943 8.112701474428862 15.167051476585907 1.9649890751520158 0.2774855597376123 21.536578538027147 -2.3425284218547056 6.492049982980691 -12.588347706393444 34.70733305985299
